<svg width="375" height="269" viewBox="0 0 375 269" fill="none" xmlns="http://www.w3.org/2000/svg">
<g filter="url(#filter0_d_414_885)">
<path d="M210.661 149.24H174.046C174.046 141.755 174.556 135.163 175.577 129.465C176.682 123.681 178.554 118.493 181.19 113.9C183.827 109.307 187.399 105.055 191.907 101.142C195.905 97.825 199.349 94.6355 202.241 91.5736C205.133 88.5117 207.344 85.4072 208.875 82.2603C210.406 79.1133 211.172 75.7537 211.172 72.1815C211.172 67.7587 210.534 64.1439 209.258 61.3372C208.067 58.5304 206.238 56.4466 203.772 55.0857C201.39 53.6398 198.371 52.9169 194.714 52.9169C191.737 52.9169 188.93 53.6398 186.293 55.0857C183.742 56.5317 181.658 58.7856 180.042 61.8475C178.426 64.8243 177.533 68.7793 177.363 73.7124H134.113C134.368 61.0395 137.175 50.748 142.534 42.8381C147.977 34.8431 155.207 29.0169 164.222 25.3596C173.323 21.6173 183.487 19.7461 194.714 19.7461C207.132 19.7461 217.806 21.6598 226.736 25.4872C235.667 29.3146 242.514 35.0132 247.277 42.5829C252.04 50.0676 254.421 59.2959 254.421 70.2678C254.421 77.5823 253.018 83.9613 250.211 89.4047C247.489 94.7631 243.79 99.7812 239.112 104.459C234.519 109.052 229.373 113.985 223.674 119.258C218.741 123.596 215.382 128.019 213.596 132.527C211.809 136.95 210.831 142.521 210.661 149.24ZM168.815 188.024C168.815 181.9 171.026 176.797 175.449 172.714C179.872 168.547 185.613 166.463 192.672 166.463C199.732 166.463 205.473 168.547 209.896 172.714C214.319 176.797 216.53 181.9 216.53 188.024C216.53 194.148 214.319 199.294 209.896 203.461C205.473 207.544 199.732 209.585 192.672 209.585C185.613 209.585 179.872 207.544 175.449 203.461C171.026 199.294 168.815 194.148 168.815 188.024Z" fill="#FFB184"/>
</g>
<g filter="url(#filter1_d_414_885)">
<path d="M288.838 187.021L268.272 176.074C270.51 171.87 272.767 168.32 275.044 165.425C277.394 162.507 279.996 160.152 282.85 158.361C285.705 156.57 288.982 155.249 292.684 154.399C295.921 153.731 298.809 152.97 301.349 152.114C303.889 151.259 306.059 150.177 307.86 148.867C309.661 147.557 311.095 145.899 312.163 143.892C313.485 141.408 314.208 139.187 314.33 137.229C314.501 135.297 314.097 133.58 313.118 132.078C312.213 130.554 310.733 129.245 308.679 128.152C307.007 127.262 305.214 126.829 303.301 126.852C301.435 126.902 299.591 127.545 297.768 128.781C295.97 129.97 294.286 131.924 292.716 134.644L268.424 121.714C272.356 114.672 277.009 109.731 282.384 106.89C287.832 104.027 293.634 102.916 299.792 103.557C306.022 104.176 312.29 106.164 318.596 109.521C325.571 113.233 330.994 117.499 334.866 122.319C338.738 127.139 340.879 132.387 341.291 138.062C341.729 143.69 340.308 149.586 337.027 155.748C334.84 159.857 332.145 163.02 328.941 165.238C325.81 167.434 322.232 169.147 318.206 170.375C314.253 171.582 309.888 172.814 305.11 174.072C301.043 175.034 297.834 176.514 295.483 178.511C293.157 180.462 290.942 183.298 288.838 187.021ZM253.738 196.294C255.569 192.855 258.337 190.649 262.042 189.679C265.772 188.66 269.619 189.206 273.584 191.317C277.55 193.428 280.151 196.314 281.389 199.978C282.653 203.593 282.369 207.12 280.538 210.56C278.707 214 275.927 216.229 272.197 217.247C268.492 218.218 264.657 217.648 260.692 215.537C256.727 213.427 254.113 210.564 252.849 206.948C251.611 203.285 251.907 199.734 253.738 196.294Z" fill="#CAB7FF"/>
</g>
<g filter="url(#filter2_d_414_885)">
<path d="M88.7718 187.021L109.338 176.074C107.1 171.87 104.842 168.32 102.565 165.425C100.215 162.507 97.6131 160.152 94.759 158.361C91.9049 156.57 88.627 155.249 84.9253 154.399C81.6883 153.731 78.8 152.97 76.2603 152.114C73.7206 151.259 71.5504 150.177 69.7496 148.867C67.9488 147.557 66.5144 145.899 65.4464 143.892C64.1241 141.408 63.4016 139.187 63.2791 137.229C63.1087 135.297 63.5128 133.58 64.4913 132.078C65.3966 130.554 66.8764 129.245 68.9306 128.152C70.6026 127.262 72.3952 126.829 74.3085 126.852C76.1739 126.902 78.0182 127.545 79.8413 128.781C81.639 129.97 83.323 131.924 84.8935 134.644L109.186 121.714C105.253 114.672 100.6 109.731 95.2253 106.89C89.7776 104.027 83.9751 102.916 77.8178 103.557C71.5873 104.176 65.3192 106.164 59.0133 109.521C52.0385 113.233 46.6153 117.499 42.7436 122.319C38.8718 127.139 36.7299 132.387 36.3179 138.062C35.8804 143.69 37.3018 149.586 40.5822 155.748C42.7691 159.857 45.4645 163.02 48.6684 165.238C51.7992 167.434 55.3776 169.147 59.4036 170.375C63.3565 171.582 67.7216 172.814 72.4989 174.072C76.5666 175.034 79.7759 176.514 82.1268 178.511C84.4523 180.462 86.6673 183.298 88.7718 187.021ZM123.871 196.294C122.04 192.855 119.273 190.649 115.568 189.679C111.838 188.66 107.99 189.206 104.025 191.317C100.06 193.428 97.4582 196.314 96.2201 199.978C94.9566 203.593 95.2403 207.12 97.0711 210.56C98.902 214 101.683 216.229 105.413 217.247C109.117 218.218 112.952 217.648 116.917 215.537C120.883 213.427 123.497 210.564 124.76 206.948C125.998 203.285 125.702 199.734 123.871 196.294Z" fill="#FFA9D2"/>
</g>
<path d="M200.373 149.821L201.257 149.831L201.29 148.947C201.537 142.298 202.569 136.855 204.352 132.586L204.354 132.58C206.123 128.265 209.429 123.994 214.341 119.776L214.349 119.769L214.358 119.761C220.125 114.549 225.338 109.669 229.994 105.121C234.788 100.439 238.606 95.3901 241.439 89.9724C244.389 84.4126 245.892 77.9039 245.98 70.4742C246.111 59.3726 243.811 49.9385 239.028 42.2206C234.25 34.4253 227.322 28.5297 218.285 24.5297C209.261 20.5357 198.483 18.4811 185.976 18.3335C174.649 18.1998 164.345 19.9664 155.077 23.65C145.854 27.2656 138.413 33.1184 132.772 41.1957L132.771 41.1975C127.192 49.2275 124.234 59.6709 123.825 72.459L123.796 73.3842L124.721 73.3951L167.968 73.9056L168.845 73.9159L168.885 73.0404C169.11 68.1907 170.032 64.3998 171.59 61.6081L171.59 61.6082L171.595 61.5988C173.178 58.6829 175.172 56.5941 177.561 55.2761C180.08 53.9344 182.743 53.283 185.563 53.3163C189.105 53.3581 191.94 54.092 194.126 55.4546L194.142 55.4646L194.158 55.4739C196.417 56.7551 198.091 58.6957 199.178 61.3449L199.183 61.3556L199.187 61.3661C200.36 64.0294 200.947 67.5109 200.896 71.8559C200.855 75.2933 200.082 78.508 198.577 81.5111C197.058 84.5427 194.868 87.547 191.992 90.5213C189.095 93.5173 185.641 96.6412 181.627 99.8929L181.619 99.8992L181.612 99.9057C176.99 103.822 173.299 108.108 170.55 112.768C167.803 117.425 165.837 122.687 164.646 128.545L164.646 128.545L164.644 128.555C163.543 134.307 162.952 140.947 162.863 148.471L162.853 149.378L163.76 149.389L200.373 149.821ZM164.286 171.3C159.626 175.503 157.25 180.821 157.175 187.191C157.1 193.562 159.349 198.974 163.904 203.369L163.911 203.375C168.479 207.693 174.428 209.864 181.673 209.949C188.918 210.035 194.917 208.005 199.585 203.796L199.592 203.79C204.25 199.504 206.626 194.146 206.701 187.775C206.776 181.405 204.527 176.033 199.968 171.722C195.402 167.318 189.452 165.102 182.203 165.016C174.955 164.931 168.954 167.005 164.286 171.3Z" stroke="white" stroke-width="1.81447"/>
<path d="M282.885 184.272L283.378 184.542L283.661 184.055C285.788 180.395 287.995 177.646 290.272 175.781L290.275 175.779C292.559 173.884 295.693 172.473 299.713 171.573L299.72 171.571L299.727 171.569C304.525 170.366 308.911 169.184 312.886 168.021C316.979 166.825 320.633 165.131 323.844 162.935C327.163 160.694 329.953 157.487 332.224 153.341C335.616 147.144 337.146 141.157 336.766 135.392C336.413 129.585 334.285 124.203 330.405 119.255C326.531 114.314 321.091 109.937 314.11 106.115C307.788 102.653 301.472 100.565 295.165 99.8628C288.904 99.1361 282.975 100.199 277.392 103.049L277.391 103.05C271.856 105.892 267.073 110.873 263.02 117.934L262.726 118.445L263.243 118.728L287.381 131.944L287.87 132.212L288.155 131.732C289.731 129.076 291.382 127.222 293.092 126.12L293.092 126.12L293.097 126.116C294.859 124.952 296.603 124.375 298.339 124.349C300.155 124.348 301.845 124.778 303.419 125.64C305.396 126.723 306.769 127.983 307.589 129.401L307.595 129.412L307.602 129.422C308.487 130.817 308.847 132.407 308.666 134.22L308.665 134.228L308.665 134.235C308.527 136.081 307.816 138.212 306.488 140.638C305.438 142.556 304.042 144.13 302.299 145.367C300.539 146.616 298.412 147.649 295.907 148.459C293.384 149.276 290.51 149.998 287.283 150.624L287.283 150.624L287.271 150.627C283.504 151.445 280.149 152.748 277.212 154.544C274.277 156.338 271.6 158.706 269.179 161.64L269.175 161.645C266.837 164.547 264.519 168.1 262.22 172.299L261.943 172.805L262.449 173.083L282.885 184.272ZM256.193 185.547C252.32 186.514 249.396 188.791 247.449 192.346C245.502 195.902 245.147 199.614 246.392 203.445L246.393 203.45C247.668 207.241 250.361 210.239 254.404 212.453C258.448 214.668 262.424 215.321 266.305 214.353L266.311 214.351C270.208 213.336 273.145 211.038 275.092 207.482C277.038 203.926 277.381 200.237 276.109 196.452C274.862 192.613 272.182 189.59 268.136 187.374C264.091 185.159 260.1 184.53 256.193 185.547Z" stroke="white" stroke-width="1.15453"/>
<path d="M94.7247 184.272L94.2311 184.542L93.9483 184.055C91.8217 180.395 89.6147 177.646 87.3369 175.781L87.334 175.779C85.0503 173.884 81.9165 172.473 77.8968 171.573L77.8896 171.571L77.8825 171.569C73.0848 170.366 68.6981 169.184 64.723 168.021C60.6308 166.825 56.9766 165.131 53.7655 162.935C50.4465 160.694 47.6564 157.487 45.3859 153.341C41.9929 147.144 40.4638 141.157 40.8434 135.392C41.1965 129.585 43.3247 124.203 47.2046 119.255C51.0788 114.314 56.5184 109.937 63.4991 106.115C69.8213 102.653 76.1371 100.565 82.444 99.8628C88.7052 99.1361 94.6345 100.199 100.217 103.049L100.219 103.05C105.753 105.892 110.537 110.873 114.59 117.934L114.883 118.445L114.366 118.728L90.2285 131.944L89.7394 132.212L89.4548 131.732C87.8787 129.076 86.2275 127.222 84.5176 126.12L84.5175 126.12L84.5119 126.116C82.7508 124.952 81.0062 124.375 79.2705 124.349C77.4547 124.348 75.7643 124.778 74.1901 125.64C72.2134 126.723 70.8403 127.983 70.02 129.401L70.014 129.412L70.0076 129.422C69.122 130.817 68.7619 132.407 68.9433 134.22L68.944 134.228L68.9446 134.235C69.0821 136.081 69.7932 138.212 71.121 140.638C72.1716 142.556 73.5671 144.13 75.3103 145.367C77.0701 146.616 79.1978 147.649 81.7026 148.459C84.2256 149.276 87.0995 149.998 90.3263 150.624L90.3263 150.624L90.3388 150.627C94.1054 151.445 97.4604 152.748 100.397 154.544C103.333 156.338 106.01 158.706 108.431 161.64L108.435 161.645C110.772 164.547 113.09 168.1 115.389 172.299L115.666 172.805L115.16 173.083L94.7247 184.272ZM121.416 185.547C125.29 186.514 128.214 188.791 130.16 192.346C132.107 195.902 132.462 199.614 131.218 203.445L131.216 203.45C129.941 207.241 127.249 210.239 123.205 212.453C119.161 214.668 115.185 215.321 111.304 214.353L111.299 214.351C107.401 213.336 104.465 211.038 102.518 207.482C100.571 203.926 100.228 200.237 101.5 196.452C102.748 192.613 105.427 189.59 109.473 187.374C113.519 185.159 117.51 184.53 121.416 185.547Z" stroke="white" stroke-width="1.15453"/>
<path d="M386 72C376.167 78 351.7 84.6 332.5 63C308.5 36 298.5 16 264 11" stroke="white" stroke-linecap="round"/>
<path d="M-27 210.5C-13.6667 204.5 18.4 197.8 40 219C67 245.5 83 261 116 251" stroke="white" stroke-linecap="round"/>
<circle cx="50.5" cy="28.5" r="12" stroke="white"/>
<circle cx="289.5" cy="233.5" r="3" stroke="white"/>
<defs>
<filter id="filter0_d_414_885" x="95.0527" y="0.215794" width="198.429" height="267.96" filterUnits="userSpaceOnUse" color-interpolation-filters="sRGB">
<feFlood flood-opacity="0" result="BackgroundImageFix"/>
<feColorMatrix in="SourceAlpha" type="matrix" values="0 0 0 0 0 0 0 0 0 0 0 0 0 0 0 0 0 0 127 0" result="hardAlpha"/>
<feOffset dy="19.5303"/>
<feGaussianBlur stdDeviation="19.5303"/>
<feComposite in2="hardAlpha" operator="out"/>
<feColorMatrix type="matrix" values="0 0 0 0 0.210031 0 0 0 0 0.0633751 0 0 0 0 0.65 0 0 0 0.4 0"/>
<feBlend mode="normal" in2="BackgroundImageFix" result="effect1_dropShadow_414_885"/>
<feBlend mode="normal" in="SourceGraphic" in2="effect1_dropShadow_414_885" result="shape"/>
</filter>
<filter id="filter1_d_414_885" x="227.246" y="90.9542" width="138.977" height="164.032" filterUnits="userSpaceOnUse" color-interpolation-filters="sRGB">
<feFlood flood-opacity="0" result="BackgroundImageFix"/>
<feColorMatrix in="SourceAlpha" type="matrix" values="0 0 0 0 0 0 0 0 0 0 0 0 0 0 0 0 0 0 127 0" result="hardAlpha"/>
<feOffset dy="12.4269"/>
<feGaussianBlur stdDeviation="12.4269"/>
<feComposite in2="hardAlpha" operator="out"/>
<feColorMatrix type="matrix" values="0 0 0 0 0.210031 0 0 0 0 0.0633751 0 0 0 0 0.65 0 0 0 0.4 0"/>
<feBlend mode="normal" in2="BackgroundImageFix" result="effect1_dropShadow_414_885"/>
<feBlend mode="normal" in="SourceGraphic" in2="effect1_dropShadow_414_885" result="shape"/>
</filter>
<filter id="filter2_d_414_885" x="11.3869" y="90.9542" width="138.977" height="164.032" filterUnits="userSpaceOnUse" color-interpolation-filters="sRGB">
<feFlood flood-opacity="0" result="BackgroundImageFix"/>
<feColorMatrix in="SourceAlpha" type="matrix" values="0 0 0 0 0 0 0 0 0 0 0 0 0 0 0 0 0 0 127 0" result="hardAlpha"/>
<feOffset dy="12.4269"/>
<feGaussianBlur stdDeviation="12.4269"/>
<feComposite in2="hardAlpha" operator="out"/>
<feColorMatrix type="matrix" values="0 0 0 0 0.210031 0 0 0 0 0.0633751 0 0 0 0 0.65 0 0 0 0.4 0"/>
<feBlend mode="normal" in2="BackgroundImageFix" result="effect1_dropShadow_414_885"/>
<feBlend mode="normal" in="SourceGraphic" in2="effect1_dropShadow_414_885" result="shape"/>
</filter>
</defs>
</svg>