<svg xmlns="http://www.w3.org/2000/svg" viewBox="0 0 256 256" style="enable-background:new 0 0 256 256" xml:space="preserve"><style>.st1{fill:#FFA9D2}.st3{fill:#9F7FFF}.st5{fill:#FFA9D2}.st6{fill:#FF9051}.st8{fill:#edf4fc}</style><g id="Layer_15"><path class="st8" d="M117.758 35.554H41.913a4.603 4.603 0 0 0-4.59 4.59v118.342a4.603 4.603 0 0 0 4.59 4.59h75.845a4.603 4.603 0 0 0 4.59-4.59V40.144a4.603 4.603 0 0 0-4.59-4.59zM214.087 35.554h-32.109a4.603 4.603 0 0 1 4.59 4.59v118.342a4.603 4.603 0 0 1-4.59 4.59h32.109a4.603 4.603 0 0 0 4.59-4.59V40.144a4.604 4.604 0 0 0-4.59-4.59z"/><path class="st8" d="M181.977 35.554h-32.109a4.604 4.604 0 0 1 4.59 4.59v118.342a4.603 4.603 0 0 1-4.59 4.59h32.109a4.603 4.603 0 0 0 4.59-4.59V40.144a4.603 4.603 0 0 0-4.59-4.59z"/><path class="st8" d="M149.868 35.554h-32.109a4.603 4.603 0 0 1 4.59 4.59v118.342a4.603 4.603 0 0 1-4.59 4.59h32.109a4.604 4.604 0 0 0 4.59-4.59V40.144a4.604 4.604 0 0 0-4.59-4.59z"/><path class="st1" d="M97.521 83.968c-4.767-4.44-12.272-4.099-16.879.508a1.14 1.14 0 0 1-1.614 0c-4.606-4.606-12.111-4.948-16.879-.508-5.005 4.661-5.11 12.5-.315 17.294l15.518 15.518a3.51 3.51 0 0 0 4.965 0l15.518-15.518c4.796-4.794 4.691-12.633-.314-17.294zM59.67 43.755c-1.87-1.742-4.814-1.608-6.621.199a.447.447 0 0 1-.633 0c-1.807-1.807-4.751-1.941-6.621-.199a4.713 4.713 0 0 0-.124 6.784l6.088 6.088c.538.538 1.41.538 1.948 0l6.088-6.088a4.714 4.714 0 0 0-.125-6.784zM113.878 141.782c-1.87-1.742-4.814-1.608-6.621.199a.447.447 0 0 1-.633 0c-1.807-1.807-4.751-1.941-6.621-.199a4.713 4.713 0 0 0-.124 6.784l6.088 6.088c.538.538 1.41.538 1.948 0l6.088-6.088a4.714 4.714 0 0 0-.125-6.784z"/><path class="st3" d="m142.804 143.745-4.829-4.829a1.092 1.092 0 0 0-1.545 0l-4.829 4.829a3.74 3.74 0 0 0 .098 5.382c1.484 1.382 3.819 1.275 5.253-.158a.354.354 0 0 1 .502 0c1.434 1.434 3.769 1.54 5.253.158a3.74 3.74 0 0 0 .097-5.382z"/><path class="st1" d="m176.406 145.999-5.47-6.004a1.349 1.349 0 0 0-1.995 0l-5.47 6.004a1.35 1.35 0 0 0 0 1.818l5.47 6.004c.535.588 1.46.588 1.995 0l5.47-6.004a1.35 1.35 0 0 0 0-1.818z"/><path class="st3" d="M205.261 143.714a.317.317 0 0 1-.36-.425c.888-2.452-.906-5.21-3.671-5.21-2.766 0-4.559 2.758-3.672 5.21a.317.317 0 0 1-.36.425c-2.423-.455-4.748 1.482-4.593 4.078.11 1.842 1.567 3.399 3.399 3.623a3.897 3.897 0 0 0 3.917-2.008c.257-.472.771-.746 1.309-.746.538 0 1.052.274 1.309.747a3.898 3.898 0 0 0 3.916 2.008c1.832-.224 3.289-1.779 3.4-3.621.156-2.596-2.169-4.537-4.594-4.081z"/><path d="M225.663 50.226h-6.986v108.26a4.603 4.603 0 0 1-4.59 4.59H41.913a4.603 4.603 0 0 1-4.59-4.59V50.226h-6.986c-4.553 0-8.279 3.725-8.279 8.279v136.737c0 4.553 3.725 8.279 8.279 8.279h195.325c4.553 0 8.279-3.725 8.279-8.279V58.505c0-4.553-3.725-8.279-8.278-8.279z" style="fill:white"/><path class="st8" d="M250.528 203.52H5.472a2.972 2.972 0 0 0-2.972 2.972c0 8.26 6.696 17.13 14.957 17.13h221.087c8.26 0 14.957-8.869 14.957-17.13a2.974 2.974 0 0 0-2.973-2.972z"/><path d="M90.513 203.52v1.939a7.297 7.297 0 0 0 7.297 7.297h60.38a7.297 7.297 0 0 0 7.297-7.297v-1.939H90.513z" style="fill:#FF9051"/><path d="M228.135 62.178h-9.458v96.308a4.603 4.603 0 0 1-4.59 4.59H41.913a4.603 4.603 0 0 1-4.59-4.59V62.178h-9.458c-3.194 0-5.806 2.613-5.806 5.806v117.084c0 3.194 2.613 5.806 5.806 5.806h200.27c3.194 0 5.806-2.613 5.806-5.806V67.985c0-3.194-2.612-5.807-5.806-5.807z" style="fill:#9be5f9"/><path class="st3" d="M22.059 178.923v6.146c0 3.194 2.613 5.806 5.806 5.806h200.27c3.194 0 5.806-2.613 5.806-5.806v-6.146H22.059z"/><path d="M22.059 178.923v6.146c0 3.194 2.613 5.806 5.806 5.806h13.752v-11.952H22.059z" style="fill:#FF9051"/><path d="M225.662 47.726h-6.184a2.5 2.5 0 1 0 0 5h6.184a5.785 5.785 0 0 1 5.779 5.779v136.737a5.786 5.786 0 0 1-5.779 5.779H30.338a5.785 5.785 0 0 1-5.779-5.779V58.505a5.786 5.786 0 0 1 5.779-5.779h6.392a2.5 2.5 0 1 0 0-5h-6.392c-5.943 0-10.779 4.835-10.779 10.779v136.737c0 5.943 4.836 10.779 10.779 10.779h195.324c5.943 0 10.779-4.835 10.779-10.779V58.505c0-5.943-4.836-10.779-10.779-10.779z"/><path d="M250.527 201.021H5.473A5.479 5.479 0 0 0 0 206.493c0 9.266 7.465 19.629 17.456 19.629h221.088c9.991 0 17.456-10.363 17.456-19.629a5.478 5.478 0 0 0-5.473-5.472zm-11.983 20.101H17.456C10.441 221.122 5 213.258 5 206.493c0-.26.212-.472.473-.472h245.055c.261 0 .473.212.473.472-.001 6.765-5.442 14.629-12.457 14.629zM117.758 33.054H41.913c-3.909 0-7.09 3.181-7.09 7.09v118.342c0 3.91 3.181 7.09 7.09 7.09h75.845c3.91 0 7.091-3.181 7.091-7.09V40.144c0-3.909-3.181-7.09-7.091-7.09zm2.091 125.432c0 1.153-.938 2.09-2.091 2.09H41.913a2.093 2.093 0 0 1-2.09-2.09V40.144c0-1.152.938-2.09 2.09-2.09h75.845c1.153 0 2.091.938 2.091 2.09v118.342z"/><path d="M113.534 41.869H68.367a2.5 2.5 0 1 0 0 5h42.667v87.186a2.5 2.5 0 1 0 5 0V44.369a2.5 2.5 0 0 0-2.5-2.5zM94.348 151.762h-45.71V60.857a2.5 2.5 0 1 0-5 0v93.405a2.5 2.5 0 0 0 2.5 2.5h48.21a2.5 2.5 0 1 0 0-5zM145.644 41.869H123.62a2.5 2.5 0 1 0 0 5h19.524v87.186a2.5 2.5 0 1 0 5 0V44.369a2.5 2.5 0 0 0-2.5-2.5zM177.753 41.869h-23.076a2.5 2.5 0 1 0 0 5h20.576v87.186a2.5 2.5 0 1 0 5 0V44.369a2.5 2.5 0 0 0-2.5-2.5zM209.862 41.869h-23.133a2.5 2.5 0 1 0 0 5h20.633v87.186a2.5 2.5 0 1 0 5 0V44.369a2.5 2.5 0 0 0-2.5-2.5z"/><path d="M214.087 33.054h-31.504a2.5 2.5 0 1 0 0 5h31.504c1.152 0 2.09.938 2.09 2.09v118.342c0 1.153-.938 2.09-2.09 2.09h-31.518a2.702 2.702 0 0 0-.441-.006 1.9 1.9 0 0 1-.15.006 2.5 2.5 0 1 0 0 5h32.109c3.909 0 7.09-3.181 7.09-7.09V40.144c0-3.909-3.181-7.09-7.09-7.09z"/><path d="M181.978 33.054H150.36a2.5 2.5 0 1 0 0 5h31.618c1.152 0 2.09.938 2.09 2.09v118.342c0 1.153-.938 2.09-2.09 2.09h-31.847a2.905 2.905 0 0 0-.264 0 2.5 2.5 0 1 0 0 5h32.11c3.909 0 7.09-3.181 7.09-7.09V40.144c0-3.909-3.18-7.09-7.089-7.09z"/><path d="M149.867 33.054h-31.68a2.5 2.5 0 1 0 0 5h31.68c1.153 0 2.091.938 2.091 2.09v118.342c0 1.153-.938 2.09-2.091 2.09h-31.602a2.29 2.29 0 0 0-.371-.004l-.137.004a2.5 2.5 0 1 0 0 5h32.109c3.91 0 7.091-3.181 7.091-7.09V40.144c.001-3.909-3.18-7.09-7.09-7.09z"/><path class="st5" d="M123.983 241.807c-4.498-.838-8.043-4.31-8.898-8.716a.2.2 0 0 0-.395 0c-.855 4.406-4.4 7.879-8.898 8.716a.195.195 0 0 0 0 .387c4.498.838 8.042 4.31 8.898 8.717a.2.2 0 0 0 .395 0c.855-4.406 4.4-7.879 8.898-8.717a.195.195 0 0 0 0-.387z"/><path class="st1" d="M255.879 110.286c-3.221-.6-5.76-3.087-6.372-6.243a.144.144 0 0 0-.283 0c-.612 3.156-3.151 5.643-6.372 6.243a.14.14 0 0 0 0 .277c3.221.6 5.76 3.087 6.372 6.243a.144.144 0 0 0 .283 0c.612-3.156 3.151-5.643 6.372-6.243a.14.14 0 0 0 0-.277z"/><path d="M114.078 10.002h-2.156V7.846a2.922 2.922 0 1 0-5.844 0v2.156h-2.156a2.922 2.922 0 1 0 0 5.844h2.156v2.156a2.922 2.922 0 1 0 5.844 0v-2.156h2.156a2.922 2.922 0 1 0 0-5.844z" style="fill:#70d6f9"/><circle class="st6" cx="144.999" cy="237.547" r="3.377"/><circle class="st6" cx="184.999" cy="21.301" r="3.377"/><circle class="st5" cx="86.999" cy="21.301" r="3.377"/><path d="M165.487 201.917a2.5 2.5 0 0 0-2.5 2.5v1.042a4.803 4.803 0 0 1-4.797 4.797H97.81a4.803 4.803 0 0 1-4.797-4.797v-1.126a2.5 2.5 0 1 0-5 0v1.126c0 5.402 4.395 9.797 9.797 9.797h60.381c5.402 0 9.797-4.395 9.797-9.797v-1.042a2.501 2.501 0 0 0-2.501-2.5zM36.625 59.679h-8.76c-4.58 0-8.307 3.726-8.307 8.306a2.5 2.5 0 1 0 5 0 3.31 3.31 0 0 1 3.307-3.306h8.76a2.5 2.5 0 1 0 0-5zM228.135 59.679h-8.655a2.5 2.5 0 1 0 0 5h8.655a3.31 3.31 0 0 1 3.307 3.306 2.5 2.5 0 1 0 5 0c-.001-4.58-3.727-8.306-8.307-8.306zM233.941 182.569a2.5 2.5 0 0 0-2.5 2.5 3.31 3.31 0 0 1-3.307 3.307H27.865a3.31 3.31 0 0 1-3.307-3.307 2.5 2.5 0 1 0-5 0c0 4.58 3.727 8.307 8.307 8.307h200.27c4.58 0 8.307-3.727 8.307-8.307a2.501 2.501 0 0 0-2.501-2.5zM233.156 176.423H23.063a2.5 2.5 0 1 0 0 5h210.093a2.5 2.5 0 1 0 0-5z"/><path d="M41.617 177.125a2.5 2.5 0 0 0-2.5 2.5v10.781a2.5 2.5 0 1 0 5 0v-10.781a2.5 2.5 0 0 0-2.5-2.5zM99.226 82.139c0-.001 0-.001 0 0-5.335-4.968-13.773-5.014-19.39-.311-5.615-4.704-14.055-4.656-19.39.311a14.408 14.408 0 0 0-4.628 10.369 14.395 14.395 0 0 0 4.249 10.522l15.519 15.518c1.172 1.172 2.711 1.758 4.25 1.758s3.078-.586 4.25-1.758l15.518-15.518a14.395 14.395 0 0 0 4.249-10.521 14.409 14.409 0 0 0-4.627-10.37zm-3.158 17.356L80.55 115.013a1.013 1.013 0 0 1-1.43 0L63.603 99.495a9.434 9.434 0 0 1-2.784-6.898 9.443 9.443 0 0 1 3.036-6.799c1.767-1.646 4.06-2.459 6.377-2.459 2.536 0 5.101.976 7.03 2.905 1.375 1.376 3.773 1.376 5.148 0 3.691-3.691 9.706-3.893 13.407-.446a9.447 9.447 0 0 1 3.036 6.8 9.44 9.44 0 0 1-2.785 6.897zM61.374 41.926c-2.401-2.236-5.915-2.511-8.643-.875-2.725-1.636-6.241-1.362-8.642.875a7.159 7.159 0 0 0-2.299 5.152 7.16 7.16 0 0 0 2.112 5.229l6.087 6.087a3.865 3.865 0 0 0 2.741 1.134c.993 0 1.986-.378 2.742-1.134l6.087-6.087a7.16 7.16 0 0 0 2.112-5.229 7.149 7.149 0 0 0-2.297-5.152zm-3.349 6.846-5.293 5.293-5.294-5.293a2.194 2.194 0 0 1-.647-1.605 2.202 2.202 0 0 1 .707-1.583 2.136 2.136 0 0 1 1.467-.563c.604 0 1.218.236 1.683.7 1.114 1.115 3.057 1.114 4.169 0 .877-.876 2.29-.939 3.149-.137.445.415.696.977.707 1.583a2.195 2.195 0 0 1-.648 1.605zM115.582 139.953c-2.398-2.234-5.91-2.511-8.642-.874-2.723-1.636-6.241-1.362-8.643.874a7.159 7.159 0 0 0-2.299 5.152 7.158 7.158 0 0 0 2.111 5.23l6.088 6.087a3.865 3.865 0 0 0 2.741 1.134c.993 0 1.986-.378 2.742-1.134l6.087-6.087a7.16 7.16 0 0 0 2.112-5.229 7.15 7.15 0 0 0-2.297-5.153zm-3.349 6.846-5.294 5.293-5.293-5.293a2.19 2.19 0 0 1-.647-1.605 2.202 2.202 0 0 1 .707-1.583 2.136 2.136 0 0 1 1.467-.563c.604 0 1.218.235 1.683.7 1.112 1.113 3.055 1.115 4.169 0 .878-.875 2.29-.938 3.149-.138.445.415.696.977.707 1.583a2.192 2.192 0 0 1-.648 1.606zM178.255 144.317c0-.001 0-.001 0 0l-5.471-6.004a3.859 3.859 0 0 0-2.846-1.258 3.854 3.854 0 0 0-2.846 1.257l-5.47 6.003a3.83 3.83 0 0 0 0 5.186l5.469 6.003a3.86 3.86 0 0 0 2.847 1.258 3.854 3.854 0 0 0 2.845-1.257l5.472-6.005a3.833 3.833 0 0 0 0-5.183zm-8.317 6.887-3.914-4.296 3.914-4.295 3.914 4.295-3.914 4.296zM144.571 141.977l-4.829-4.829a3.595 3.595 0 0 0-5.08 0l-4.829 4.829a6.19 6.19 0 0 0-1.827 4.523 6.185 6.185 0 0 0 1.988 4.456c2 1.863 4.893 2.153 7.208.91a6.317 6.317 0 0 0 2.986.753 6.172 6.172 0 0 0 4.222-1.663 6.19 6.19 0 0 0 1.988-4.457 6.186 6.186 0 0 0-1.827-4.522zm-3.569 5.32c-.482.448-1.279.404-1.781-.096-.557-.557-1.287-.835-2.019-.835s-1.462.278-2.019.835c-.502.5-1.301.544-1.781.096a1.227 1.227 0 0 1-.396-.886 1.23 1.23 0 0 1 .362-.899l3.834-3.833 3.834 3.833c.324.324.366.703.362.899a1.227 1.227 0 0 1-.396.886z"/><path d="M137.202 148.052a2.5 2.5 0 0 0-2.5 2.5v3.71a2.5 2.5 0 1 0 5 0v-3.71a2.5 2.5 0 0 0-2.5-2.5zM210.2 142.752a6.42 6.42 0 0 0-2.603-1.397 6.436 6.436 0 0 0-1.139-3.061c-1.21-1.726-3.116-2.716-5.229-2.716s-4.019.99-5.229 2.716a6.449 6.449 0 0 0-1.139 3.061 6.41 6.41 0 0 0-2.6 1.395 6.363 6.363 0 0 0-2.153 5.19c.181 3.026 2.584 5.586 5.591 5.955.268.033.534.049.799.049a6.363 6.363 0 0 0 4.73-2.092 6.386 6.386 0 0 0 5.527 2.043c3.005-.367 5.409-2.925 5.592-5.951a6.352 6.352 0 0 0-2.147-5.192zm-4.049 6.181a1.388 1.388 0 0 1-1.417-.725c-.69-1.263-2.032-2.048-3.504-2.048s-2.813.785-3.506 2.052c-.221.405-.72.811-1.415.721-.629-.077-1.171-.656-1.209-1.29a1.379 1.379 0 0 1 .469-1.141 1.388 1.388 0 0 1 1.169-.331 2.82 2.82 0 0 0 2.673-.944c.653-.77.844-1.84.498-2.789a1.397 1.397 0 0 1 .186-1.272c.154-.219.506-.587 1.136-.587s.981.368 1.136.587c.267.38.336.856.187 1.268a2.828 2.828 0 0 0 .497 2.792 2.82 2.82 0 0 0 2.673.944h.001c.415-.079.842.042 1.169.331.189.167.503.539.467 1.141-.041.636-.582 1.214-1.21 1.291z"/><path d="M201.23 147.012a2.5 2.5 0 0 0-2.5 2.5v4.75a2.5 2.5 0 1 0 5 0v-4.75a2.5 2.5 0 0 0-2.5-2.5z"/></g></svg>