<?xml version="1.0" encoding="utf-8"?>
<!-- Generator: Adobe Illustrator 27.5.0, SVG Export Plug-In . SVG Version: 6.00 Build 0)  -->
<svg version="1.1" xmlns="http://www.w3.org/2000/svg" xmlns:xlink="http://www.w3.org/1999/xlink" x="0px" y="0px"
	 viewBox="0 0 650 500" style="enable-background:new 0 0 650 500;" xml:space="preserve">
<g id="BACKGROUND">
</g>
<g id="OBJECTS">
	<g>
		<g>
			<g>
				<g>
					<line style="fill:#BBDDDE;" x1="127.101" y1="54.542" x2="127.101" y2="70.882"/>
					<line style="fill:#BBDDDE;" x1="101.805" y1="96.339" x2="85.304" y2="96.339"/>
				</g>
			</g>
			<g>
				<g>
					<line style="fill:#BBDDDE;" x1="168.899" y1="96.296" x2="152.559" y2="96.296"/>
					<line style="fill:#BBDDDE;" x1="143.544" y1="96.296" x2="127.101" y2="96.296"/>
				</g>
			</g>
			<path style="fill:#FF9051;" d="M123.747,123.911c-1.305,1.605-3.295,2.631-5.525,2.631c-3.93,0-7.117-3.186-7.117-7.116
				c0-3.93,3.186-7.117,7.117-7.117c2.243,0,4.244,1.038,5.549,2.66V98.527l-16.536,0.028c1.675-1.302,2.754-3.336,2.754-5.622
				c0-3.93-3.186-7.116-7.116-7.116c-3.93,0-7.117,3.186-7.117,7.116c0,2.197,0.917,4.178,2.719,5.637H81.973
				c0,43.016,41.797,41.754,41.797,41.754v-16.34"/>
			<path style="fill:#FFA9D2;" d="M123.793,73.19c1.305-1.605,3.295-2.631,5.525-2.631c3.93,0,7.116,3.186,7.116,7.117
				s-3.186,7.117-7.116,7.117c-2.243,0-4.244-1.038-5.549-2.66v16.442l16.537-0.028c-1.676,1.302-2.754,3.336-2.754,5.622
				c0,3.93,3.186,7.116,7.116,7.116c3.93,0,7.117-3.186,7.117-7.116c0-2.197-0.917-4.178-2.719-5.637h16.501
				c0-43.016-41.797-41.754-41.797-41.754v16.34"/>
			<path style="fill:none;stroke:white;stroke-linecap:round;stroke-linejoin:round;stroke-miterlimit:10;" d="M84.831,189.744
				c0.314-1.296,0.625-2.587,0.939-3.878c2.151-8.851,4.554-17.65,6.37-26.569c1.315-6.457-0.677-12.382-4.652-17.637
				c-7.274-9.616-14.114-18.683-16.885-30.695c-2.599-11.268-1.571-23.412,3.244-33.956c8.194-17.943,26.026-29.135,45.353-31.02
				c9.13-0.891,18.027-0.481,26.798,2.443c11.226,3.742,21.189,13.514,25.947,24.258c2.167,4.891,3.401,10.189,3.655,15.531
				c0.121,2.54,0.279,5.527-0.417,7.996c-0.724,2.57-1.561,4.535-0.39,7.228c0.189,0.434,0.411,0.854,0.657,1.258
				c2.325,3.821,4.82,7.539,7.234,11.307c1.018,1.588,2.121,3.133,2.995,4.798c1.5,2.858,0.984,4.206-1.924,5.761
				c-1.992,1.066-4.846,1.724-5.676,3.384c-0.51,1.02,0.271,2.421,0.659,3.353c0.554,1.332,1.117,2.735,0.995,4.211
				c-0.055,0.668-0.31,1.348-0.826,1.777c-0.18,0.149-0.386,0.265-0.558,0.423c-0.172,0.158-0.312,0.375-0.299,0.608
				c0.054,1.007,1.139,1.164,0.865,2.367c-0.243,1.065-1.071,1.95-1.865,2.649c-2.835,2.495-0.89,7.712-1.162,10.794
				c-0.19,2.164-1.058,4.363-2.777,5.692c-3.532,2.73-9.128,1.316-13.129,0.685c-6.333-0.999-14.564-0.406-15.293,7.638
				c-0.607,6.69,0.19,13.47,2.32,19.841"/>
			<g>
				
					<line style="fill:none;stroke:white;stroke-linecap:round;stroke-linejoin:round;stroke-miterlimit:10;" x1="127.101" y1="54.542" x2="127.101" y2="70.882"/>
				
					<line style="fill:none;stroke:white;stroke-linecap:round;stroke-linejoin:round;stroke-miterlimit:10;" x1="101.805" y1="96.339" x2="85.304" y2="96.339"/>
				<polyline style="fill:none;stroke:white;stroke-linecap:round;stroke-linejoin:round;stroke-miterlimit:10;" points="
					127.101,79.897 127.101,96.339 110.547,96.339 				"/>
				<path style="fill:none;stroke:white;stroke-linecap:round;stroke-linejoin:round;stroke-miterlimit:10;" d="M127.124,70.955
					c1.305-1.605,3.295-2.631,5.525-2.631c3.93,0,7.117,3.186,7.117,7.116c0,3.93-3.186,7.117-7.117,7.117
					c-2.243,0-4.244-1.038-5.549-2.66"/>
				<path style="fill:none;stroke:white;stroke-linecap:round;stroke-linejoin:round;stroke-miterlimit:10;" d="M101.805,96.339
					c-1.802-1.459-2.719-3.44-2.719-5.637c0-3.93,3.186-7.117,7.117-7.117c3.93,0,7.117,3.186,7.117,7.117
					c0,2.295-1.086,4.335-2.772,5.637"/>
			</g>
			<g>
				
					<line style="fill:none;stroke:white;stroke-linecap:round;stroke-linejoin:round;stroke-miterlimit:10;" x1="168.899" y1="96.296" x2="152.559" y2="96.296"/>
				
					<line style="fill:none;stroke:white;stroke-linecap:round;stroke-linejoin:round;stroke-miterlimit:10;" x1="143.544" y1="96.296" x2="127.101" y2="96.296"/>
				<path style="fill:none;stroke:white;stroke-linecap:round;stroke-linejoin:round;stroke-miterlimit:10;" d="M152.485,96.319
					c1.605,1.305,2.631,3.295,2.631,5.525c0,3.93-3.186,7.117-7.117,7.117c-3.93,0-7.117-3.186-7.117-7.117
					c0-2.243,1.038-4.244,2.66-5.549"/>
			</g>
			<g>
				
					<line style="fill:none;stroke:white;stroke-linecap:round;stroke-linejoin:round;stroke-miterlimit:10;" x1="127.101" y1="138.093" x2="127.101" y2="121.753"/>
				
					<line style="fill:none;stroke:white;stroke-linecap:round;stroke-linejoin:round;stroke-miterlimit:10;" x1="127.101" y1="112.738" x2="127.101" y2="96.296"/>
				<path style="fill:none;stroke:white;stroke-linecap:round;stroke-linejoin:round;stroke-miterlimit:10;" d="M127.078,121.68
					c-1.305,1.605-3.295,2.631-5.525,2.631c-3.93,0-7.117-3.186-7.117-7.117c0-3.93,3.186-7.117,7.117-7.117
					c2.243,0,4.244,1.038,5.549,2.66"/>
			</g>
		</g>
	</g>
	<g>
		<g>
			<g>
				<path style="fill:#FFA9D2;" d="M381.173,121.872c-0.873-1.665-1.977-3.21-2.995-4.798c-2.415-3.767-4.909-7.485-7.234-11.307
					c-0.246-0.404-0.469-0.824-0.658-1.258c-1.172-2.693-0.334-4.658,0.39-7.228c0.695-2.469,0.538-5.456,0.417-7.996
					c-0.254-5.342-1.489-10.64-3.655-15.531c-4.759-10.744-14.721-20.515-25.947-24.258c-8.77-2.924-17.668-3.333-26.797-2.442
					c-19.327,1.886-37.159,13.078-45.353,31.02c-4.816,10.544-5.844,22.688-3.244,33.956c2.771,12.011,9.611,21.079,16.884,30.695
					c3.975,5.255,5.967,11.18,4.652,17.637c-1.816,8.919-4.219,17.719-6.37,26.569c-0.314,1.291-0.625,2.582-0.939,3.878
					l62.179,0.244c-2.129-6.371-2.926-13.151-2.319-19.841c0.73-8.044,8.96-8.637,15.293-7.638
					c4.001,0.631,9.597,2.045,13.129-0.685c1.719-1.329,2.587-3.528,2.777-5.692c0.271-3.082-1.673-8.299,1.161-10.794
					c0.794-0.699,1.622-1.585,1.865-2.649c0.275-1.204-0.811-1.361-0.865-2.367c-0.013-0.233,0.127-0.45,0.299-0.608
					c0.172-0.158,0.378-0.273,0.558-0.423c0.515-0.429,0.77-1.108,0.826-1.777c0.122-1.476-0.441-2.879-0.995-4.211
					c-0.388-0.932-1.169-2.333-0.659-3.353c0.83-1.66,3.684-2.319,5.676-3.384C382.157,126.078,382.673,124.73,381.173,121.872z
					 M317.551,121.651c0,0-47.11-29.076-25.434-50.367c12.391-12.171,25.434,11.177,25.434,11.177s13.043-23.347,25.434-11.177
					C364.661,92.575,317.551,121.651,317.551,121.651z"/>
			</g>
			<polygon style="fill:#FFB184;" points="331.233,92.897 321.62,92.897 321.62,83.284 314.338,83.284 314.338,92.897 
				304.725,92.897 304.725,100.179 314.338,100.179 314.338,109.792 321.62,109.792 321.62,100.179 331.233,100.179 			"/>
			<path style="fill:none;stroke:white;stroke-linecap:round;stroke-linejoin:round;stroke-miterlimit:10;" d="M282.947,189.744
				c0.314-1.296,0.626-2.587,0.939-3.878c2.151-8.851,4.554-17.65,6.37-26.569c1.315-6.457-0.677-12.382-4.652-17.637
				c-7.274-9.616-14.114-18.683-16.884-30.695c-2.599-11.268-1.571-23.412,3.244-33.956c8.194-17.943,26.026-29.135,45.353-31.02
				c9.13-0.891,18.027-0.481,26.797,2.443c11.226,3.742,21.189,13.514,25.948,24.258c2.166,4.891,3.401,10.189,3.655,15.531
				c0.121,2.54,0.279,5.527-0.417,7.996c-0.724,2.57-1.562,4.535-0.39,7.228c0.189,0.434,0.411,0.854,0.658,1.258
				c2.325,3.821,4.82,7.539,7.234,11.307c1.018,1.588,2.121,3.133,2.995,4.798c1.5,2.858,0.984,4.206-1.924,5.761
				c-1.992,1.066-4.846,1.724-5.676,3.384c-0.51,1.02,0.271,2.421,0.659,3.353c0.554,1.332,1.117,2.735,0.995,4.211
				c-0.055,0.668-0.31,1.348-0.826,1.777c-0.179,0.149-0.386,0.265-0.558,0.423c-0.172,0.158-0.312,0.375-0.299,0.608
				c0.054,1.007,1.139,1.164,0.865,2.367c-0.243,1.065-1.071,1.95-1.865,2.649c-2.835,2.495-0.89,7.712-1.162,10.794
				c-0.19,2.164-1.058,4.363-2.777,5.692c-3.532,2.73-9.128,1.316-13.129,0.685c-6.333-0.999-14.564-0.406-15.293,7.638
				c-0.607,6.69,0.19,13.47,2.32,19.841"/>
			<path style="fill:none;stroke:white;stroke-linecap:round;stroke-linejoin:round;stroke-miterlimit:10;" d="M345.609,66.827
				c-12.391-12.171-25.434,11.177-25.434,11.177s-13.043-23.348-25.434-11.177c-21.676,21.291,25.434,50.367,25.434,50.367
				S367.285,88.118,345.609,66.827z"/>
			<polygon style="fill:none;stroke:white;stroke-linecap:round;stroke-linejoin:round;stroke-miterlimit:10;" points="
				333.429,90.767 323.817,90.767 323.817,81.154 316.534,81.154 316.534,90.767 306.922,90.767 306.922,98.049 316.534,98.049 
				316.534,107.662 323.817,107.662 323.817,98.049 333.429,98.049 			"/>
		</g>
	</g>
	<g>
		<g>
			<path style="fill:none;stroke:white;stroke-linecap:round;stroke-linejoin:round;stroke-miterlimit:10;" d="M481.537,189.744
				c0.314-1.296,0.625-2.587,0.939-3.878c2.151-8.851,4.554-17.65,6.37-26.569c1.315-6.457-0.677-12.382-4.652-17.637
				c-7.273-9.616-14.114-18.683-16.884-30.695c-2.599-11.268-1.571-23.412,3.244-33.956c8.194-17.943,26.026-29.135,45.353-31.02
				c9.13-0.891,18.027-0.481,26.797,2.443c11.226,3.742,21.189,13.514,25.948,24.258c2.166,4.891,3.401,10.189,3.655,15.531
				c0.121,2.54,0.279,5.527-0.417,7.996c-0.724,2.57-1.562,4.535-0.39,7.228c0.189,0.434,0.411,0.854,0.657,1.258
				c2.325,3.821,4.82,7.539,7.234,11.307c1.018,1.588,2.121,3.133,2.995,4.798c1.5,2.858,0.984,4.206-1.924,5.761
				c-1.992,1.066-4.846,1.724-5.676,3.384c-0.51,1.02,0.271,2.421,0.659,3.353c0.554,1.332,1.117,2.735,0.995,4.211
				c-0.055,0.668-0.31,1.348-0.826,1.777c-0.179,0.149-0.386,0.265-0.558,0.423c-0.172,0.158-0.312,0.375-0.299,0.608
				c0.054,1.007,1.139,1.164,0.865,2.367c-0.243,1.065-1.071,1.95-1.865,2.649c-2.835,2.495-0.89,7.712-1.162,10.794
				c-0.19,2.164-1.058,4.363-2.777,5.692c-3.532,2.73-9.128,1.316-13.129,0.685c-6.333-0.999-14.564-0.406-15.293,7.638
				c-0.607,6.69,0.19,13.47,2.32,19.841"/>
			<path style="fill:#FFB184;" d="M519.571,53.382c-18.356,0-33.236,14.88-33.236,33.236s14.88,33.236,33.236,33.236
				c18.356,0,33.236-14.88,33.236-33.236S537.927,53.382,519.571,53.382z M527.129,105.05h-15.116l4.122-20.396
				c-3.034-1.326-5.157-4.35-5.157-7.874c0-4.746,3.847-8.593,8.593-8.593c4.746,0,8.593,3.847,8.593,8.593
				c0,3.523-2.122,6.547-5.157,7.874L527.129,105.05z"/>
			<path style="fill:none;stroke:white;stroke-linecap:round;stroke-linejoin:round;stroke-miterlimit:10;" d="M530.208,73.715
				c0-4.746-3.847-8.593-8.593-8.593c-4.746,0-8.593,3.847-8.593,8.593c0,3.523,2.122,6.548,5.157,7.874l-4.122,20.396h15.116
				l-4.122-20.396C528.085,80.262,530.208,77.238,530.208,73.715z"/>
		</g>
	</g>
	<g>
		<g>
			<g>
				<path style="fill:#FFA9D2;" d="M156.489,307.108v-6.761h-5.052c-0.446-2.518-1.395-4.86-2.762-6.906l3.614-3.614l-4.781-4.781
					l-3.569,3.569c-2.02-1.412-4.335-2.429-6.84-2.928v-5.11h-6.762v5.052c-2.518,0.446-4.86,1.395-6.906,2.762l-3.614-3.614
					l-4.781,4.781l3.569,3.569c-1.412,2.02-2.429,4.335-2.928,6.84h-5.11v6.762h5.052c0.446,2.518,1.396,4.86,2.762,6.906
					l-3.614,3.614l4.781,4.781l3.569-3.569c2.02,1.412,4.335,2.429,6.84,2.928v5.11h6.762v-5.052
					c2.518-0.446,4.86-1.396,6.906-2.762l3.614,3.614l4.781-4.781l-3.569-3.569c1.412-2.02,2.429-4.335,2.928-6.84H156.489z
					 M133.529,314.268c-5.927,0-10.731-4.805-10.731-10.731c0-5.927,4.805-10.731,10.731-10.731c5.927,0,10.731,4.805,10.731,10.731
					C144.26,309.464,139.455,314.268,133.529,314.268z"/>
			</g>
			<g>
				<g>
					<g>
						<g>
							<path style="fill:#FFB184;" d="M114.974,327.374l0.897-5.291l-3.953-0.67c-0.015-2.029-0.447-3.988-1.246-5.771l3.308-2.349
								l-3.107-4.376l-3.266,2.319c-1.394-1.373-3.07-2.476-4.964-3.198l0.678-3.999l-5.291-0.897l-0.67,3.953
								c-2.029,0.015-3.988,0.447-5.771,1.246l-2.349-3.308l-4.376,3.107l2.319,3.266c-1.373,1.394-2.476,3.07-3.199,4.964
								l-3.999-0.678l-0.897,5.291l3.953,0.67c0.015,2.029,0.448,3.988,1.246,5.771l-3.308,2.349l3.107,4.376l3.266-2.319
								c1.394,1.373,3.07,2.476,4.964,3.199l-0.678,3.999l5.291,0.897l0.67-3.953c2.029-0.015,3.988-0.447,5.771-1.246l2.349,3.308
								l4.376-3.107l-2.319-3.266c1.373-1.394,2.476-3.07,3.199-4.964L114.974,327.374z M96.056,329.932
								c-4.638-0.786-7.761-5.183-6.975-9.822s5.183-7.761,9.822-6.974c4.638,0.786,7.761,5.183,6.974,9.822
								C105.091,327.595,100.694,330.718,96.056,329.932z"/>
						</g>
					</g>
				</g>
			</g>
			<path style="fill:none;stroke:white;stroke-linecap:round;stroke-linejoin:round;stroke-miterlimit:10;" d="M84.831,412.804
				c0.314-1.296,0.625-2.587,0.939-3.878c2.151-8.851,4.554-17.65,6.37-26.569c1.315-6.457-0.677-12.382-4.652-17.637
				c-7.274-9.616-14.114-18.683-16.885-30.695c-2.599-11.268-1.571-23.412,3.244-33.956c8.194-17.943,26.026-29.135,45.353-31.02
				c9.13-0.891,18.027-0.481,26.798,2.443c11.226,3.742,21.189,13.513,25.947,24.258c2.167,4.891,3.401,10.189,3.655,15.531
				c0.121,2.54,0.279,5.527-0.417,7.996c-0.724,2.57-1.561,4.535-0.39,7.227c0.189,0.434,0.411,0.854,0.657,1.258
				c2.325,3.821,4.82,7.54,7.234,11.307c1.018,1.588,2.121,3.133,2.995,4.798c1.5,2.858,0.984,4.206-1.924,5.761
				c-1.992,1.066-4.846,1.724-5.676,3.384c-0.51,1.02,0.271,2.421,0.659,3.353c0.554,1.332,1.117,2.735,0.995,4.211
				c-0.055,0.668-0.31,1.348-0.826,1.777c-0.18,0.149-0.386,0.265-0.558,0.423c-0.172,0.158-0.312,0.375-0.299,0.608
				c0.054,1.007,1.139,1.164,0.865,2.367c-0.243,1.065-1.071,1.95-1.865,2.649c-2.835,2.495-0.89,7.712-1.162,10.794
				c-0.19,2.164-1.058,4.363-2.777,5.692c-3.532,2.73-9.128,1.316-13.129,0.685c-6.333-0.999-14.564-0.406-15.293,7.638
				c-0.607,6.69,0.19,13.47,2.32,19.841"/>
			<g>
				<path style="fill:none;stroke:#39414F;stroke-linecap:round;stroke-linejoin:round;stroke-miterlimit:10;" d="M125.228,286.555
					c2.036-1.358,4.362-2.316,6.865-2.76"/>
				<path style="fill:none;stroke:#39414F;stroke-linecap:round;stroke-linejoin:round;stroke-miterlimit:10;" d="M117.491,298.089
					c0.497-2.489,1.503-4.795,2.905-6.803"/>
				<path style="fill:none;stroke:#39414F;stroke-linecap:round;stroke-linejoin:round;stroke-miterlimit:10;" d="M120.179,311.715
					c-1.358-2.036-2.315-4.361-2.759-6.864"/>
				<path style="fill:none;stroke:#39414F;stroke-linecap:round;stroke-linejoin:round;stroke-miterlimit:10;" d="M131.713,319.452
					c-2.489-0.497-4.795-1.503-6.804-2.906"/>
				<path style="fill:none;stroke:#39414F;stroke-linecap:round;stroke-linejoin:round;stroke-miterlimit:10;" d="M145.339,316.764
					c-2.036,1.358-4.361,2.315-6.864,2.759"/>
				<path style="fill:none;stroke:#39414F;stroke-linecap:round;stroke-linejoin:round;stroke-miterlimit:10;" d="M153.076,305.23
					c-0.497,2.489-1.503,4.795-2.906,6.804"/>
				<path style="fill:none;stroke:#39414F;stroke-linecap:round;stroke-linejoin:round;stroke-miterlimit:10;" d="M150.388,291.604
					c1.358,2.036,2.315,4.361,2.759,6.864"/>
				<path style="fill:none;stroke:#39414F;stroke-linecap:round;stroke-linejoin:round;stroke-miterlimit:10;" d="M138.855,283.867
					c2.489,0.497,4.795,1.503,6.804,2.905"/>
				
					<ellipse transform="matrix(0.7071 -0.7071 0.7071 0.7071 -173.6818 184.014)" style="fill:none;stroke:white;stroke-linecap:round;stroke-linejoin:round;stroke-miterlimit:10;" cx="135.284" cy="301.659" rx="13.414" ry="13.414"/>
				<polyline style="fill:none;stroke:white;stroke-linecap:round;stroke-linejoin:round;stroke-miterlimit:10;" points="
					132.093,283.798 132.093,278.699 138.854,278.699 138.854,283.867 				"/>
				<polyline style="fill:none;stroke:white;stroke-linecap:round;stroke-linejoin:round;stroke-miterlimit:10;" points="
					145.658,286.773 149.263,283.168 154.044,287.949 150.389,291.603 				"/>
				<polyline style="fill:none;stroke:white;stroke-linecap:round;stroke-linejoin:round;stroke-miterlimit:10;" points="
					153.145,298.469 158.244,298.469 158.244,305.23 153.076,305.23 				"/>
				<polyline style="fill:none;stroke:white;stroke-linecap:round;stroke-linejoin:round;stroke-miterlimit:10;" points="
					150.17,312.034 153.775,315.639 148.994,320.42 145.34,316.765 				"/>
				<polyline style="fill:none;stroke:white;stroke-linecap:round;stroke-linejoin:round;stroke-miterlimit:10;" points="
					138.474,319.521 138.474,324.62 131.713,324.62 131.713,319.452 				"/>
				<polyline style="fill:none;stroke:white;stroke-linecap:round;stroke-linejoin:round;stroke-miterlimit:10;" points="
					124.91,316.546 121.304,320.151 116.523,315.37 120.178,311.715 				"/>
				<polyline style="fill:none;stroke:white;stroke-linecap:round;stroke-linejoin:round;stroke-miterlimit:10;" points="
					117.422,304.85 112.323,304.85 112.323,298.089 117.491,298.089 				"/>
				<polyline style="fill:none;stroke:white;stroke-linecap:round;stroke-linejoin:round;stroke-miterlimit:10;" points="
					120.397,291.285 116.792,287.68 121.573,282.899 125.228,286.554 				"/>
			</g>
			<g>
				<path style="fill:none;stroke:white;stroke-linecap:round;stroke-linejoin:round;stroke-miterlimit:10;" d="M125.037,286.745
					c2.036-1.358,4.362-2.316,6.865-2.76"/>
				<path style="fill:none;stroke:white;stroke-linecap:round;stroke-linejoin:round;stroke-miterlimit:10;" d="M117.301,298.279
					c0.497-2.489,1.503-4.795,2.905-6.803"/>
				<path style="fill:none;stroke:white;stroke-linecap:round;stroke-linejoin:round;stroke-miterlimit:10;" d="M119.989,311.905
					c-1.358-2.036-2.315-4.361-2.759-6.864"/>
				<path style="fill:none;stroke:white;stroke-linecap:round;stroke-linejoin:round;stroke-miterlimit:10;" d="M131.523,319.642
					c-2.489-0.497-4.795-1.503-6.804-2.905"/>
				<path style="fill:none;stroke:white;stroke-linecap:round;stroke-linejoin:round;stroke-miterlimit:10;" d="M145.149,316.954
					c-2.036,1.358-4.361,2.315-6.864,2.759"/>
				<path style="fill:none;stroke:white;stroke-linecap:round;stroke-linejoin:round;stroke-miterlimit:10;" d="M152.886,305.421
					c-0.497,2.489-1.503,4.795-2.906,6.804"/>
				<path style="fill:none;stroke:white;stroke-linecap:round;stroke-linejoin:round;stroke-miterlimit:10;" d="M150.198,291.794
					c1.358,2.036,2.315,4.361,2.759,6.864"/>
				<path style="fill:none;stroke:white;stroke-linecap:round;stroke-linejoin:round;stroke-miterlimit:10;" d="M138.664,284.057
					c2.489,0.497,4.795,1.503,6.804,2.905"/>
				
					<circle style="fill:none;stroke:white;stroke-linecap:round;stroke-linejoin:round;stroke-miterlimit:10;" cx="135.093" cy="301.85" r="10.731"/>
				<polyline style="fill:none;stroke:white;stroke-linecap:round;stroke-linejoin:round;stroke-miterlimit:10;" points="
					131.903,283.988 131.903,278.889 138.664,278.889 138.664,284.057 				"/>
				<polyline style="fill:none;stroke:white;stroke-linecap:round;stroke-linejoin:round;stroke-miterlimit:10;" points="
					145.467,286.963 149.073,283.358 153.854,288.139 150.199,291.794 				"/>
				<polyline style="fill:none;stroke:white;stroke-linecap:round;stroke-linejoin:round;stroke-miterlimit:10;" points="
					152.955,298.659 158.054,298.659 158.054,305.42 152.886,305.42 				"/>
				<polyline style="fill:none;stroke:white;stroke-linecap:round;stroke-linejoin:round;stroke-miterlimit:10;" points="
					149.98,312.224 153.585,315.829 148.804,320.61 145.149,316.956 				"/>
				<polyline style="fill:none;stroke:white;stroke-linecap:round;stroke-linejoin:round;stroke-miterlimit:10;" points="
					138.284,319.711 138.284,324.81 131.523,324.81 131.523,319.642 				"/>
				<polyline style="fill:none;stroke:white;stroke-linecap:round;stroke-linejoin:round;stroke-miterlimit:10;" points="
					124.719,316.736 121.114,320.341 116.333,315.56 119.988,311.905 				"/>
				<polyline style="fill:none;stroke:white;stroke-linecap:round;stroke-linejoin:round;stroke-miterlimit:10;" points="
					117.232,305.04 112.133,305.04 112.133,298.279 117.301,298.279 				"/>
				<polyline style="fill:none;stroke:white;stroke-linecap:round;stroke-linejoin:round;stroke-miterlimit:10;" points="
					120.207,291.476 116.602,287.87 121.383,283.089 125.038,286.744 				"/>
			</g>
			<g>
				<path style="fill:none;stroke:white;stroke-linecap:round;stroke-linejoin:round;stroke-miterlimit:10;" d="M93.268,306.919
					c1.784-0.758,3.735-1.161,5.748-1.14"/>
				<path style="fill:none;stroke:white;stroke-linecap:round;stroke-linejoin:round;stroke-miterlimit:10;" d="M85.553,314.759
					c0.752-1.864,1.874-3.511,3.26-4.868"/>
				<path style="fill:none;stroke:white;stroke-linecap:round;stroke-linejoin:round;stroke-miterlimit:10;" d="M85.643,325.758
					c-0.758-1.784-1.161-3.734-1.139-5.747"/>
				<path style="fill:none;stroke:white;stroke-linecap:round;stroke-linejoin:round;stroke-miterlimit:10;" d="M93.483,333.474
					c-1.864-0.752-3.511-1.874-4.868-3.26"/>
				<path style="fill:none;stroke:white;stroke-linecap:round;stroke-linejoin:round;stroke-miterlimit:10;" d="M104.483,333.383
					c-1.784,0.758-3.734,1.161-5.747,1.139"/>
				<path style="fill:none;stroke:white;stroke-linecap:round;stroke-linejoin:round;stroke-miterlimit:10;" d="M112.198,325.543
					c-0.752,1.864-1.874,3.511-3.26,4.868"/>
				<path style="fill:none;stroke:white;stroke-linecap:round;stroke-linejoin:round;stroke-miterlimit:10;" d="M112.108,314.544
					c0.758,1.784,1.161,3.734,1.139,5.747"/>
				<path style="fill:none;stroke:white;stroke-linecap:round;stroke-linejoin:round;stroke-miterlimit:10;" d="M104.268,306.829
					c1.864,0.752,3.511,1.874,4.868,3.26"/>
				<path style="fill:none;stroke:white;stroke-linecap:round;stroke-linejoin:round;stroke-miterlimit:10;" d="M107.227,321.727
					c-0.87,4.613-5.315,7.646-9.928,6.776c-4.613-0.87-7.646-5.315-6.776-9.928c0.87-4.613,5.315-7.646,9.928-6.776
					C105.064,312.67,108.098,317.115,107.227,321.727z"/>
				<polyline style="fill:none;stroke:white;stroke-linecap:round;stroke-linejoin:round;stroke-miterlimit:10;" points="
					99.016,305.782 99.765,301.813 105.027,302.806 104.268,306.829 				"/>
				<polyline style="fill:none;stroke:white;stroke-linecap:round;stroke-linejoin:round;stroke-miterlimit:10;" points="
					109.135,310.09 112.471,307.813 115.49,312.236 112.109,314.544 				"/>
				<polyline style="fill:none;stroke:white;stroke-linecap:round;stroke-linejoin:round;stroke-miterlimit:10;" points="
					113.245,320.291 117.213,321.04 116.22,326.302 112.198,325.543 				"/>
				<polyline style="fill:none;stroke:white;stroke-linecap:round;stroke-linejoin:round;stroke-miterlimit:10;" points="
					108.937,330.411 111.214,333.747 106.791,336.765 104.483,333.384 				"/>
				<polyline style="fill:none;stroke:white;stroke-linecap:round;stroke-linejoin:round;stroke-miterlimit:10;" points="
					98.735,334.521 97.987,338.489 92.724,337.496 93.483,333.474 				"/>
				<polyline style="fill:none;stroke:white;stroke-linecap:round;stroke-linejoin:round;stroke-miterlimit:10;" points="
					88.616,330.213 85.28,332.489 82.261,328.066 85.643,325.759 				"/>
				<polyline style="fill:none;stroke:white;stroke-linecap:round;stroke-linejoin:round;stroke-miterlimit:10;" points="
					84.506,320.011 80.538,319.262 81.531,314 85.553,314.759 				"/>
				<polyline style="fill:none;stroke:white;stroke-linecap:round;stroke-linejoin:round;stroke-miterlimit:10;" points="
					88.814,309.891 86.538,306.556 90.961,303.537 93.268,306.918 				"/>
			</g>
		</g>
	</g>
	<g>
		<g>
			<g>
				<g>
					<path style="fill:#FFB184;" d="M517.87,325.743c0,0-21.766-20.362,0-45.174C517.87,280.57,539.538,302.134,517.87,325.743z"/>
				</g>
				<g>
					<path style="fill:#FFA9D2;" d="M522.245,328.097c0,0,6.101-25.484,34.522-19.634
						C556.766,308.463,549.704,334.395,522.245,328.097z"/>
				</g>
				<g>
					<path style="fill:#FFA9D2;" d="M513.451,328.097c0,0-6.101-25.484-34.522-19.634
						C478.929,308.463,485.991,334.395,513.451,328.097z"/>
				</g>
			</g>
			<path style="fill:none;stroke:white;stroke-linecap:round;stroke-linejoin:round;stroke-miterlimit:10;" d="M481.537,413.337
				c0.314-1.296,0.625-2.587,0.939-3.878c2.151-8.851,4.554-17.65,6.37-26.569c1.315-6.457-0.677-12.382-4.652-17.637
				c-7.273-9.616-14.114-18.683-16.884-30.695c-2.599-11.269-1.571-23.412,3.244-33.956c8.194-17.943,26.026-29.135,45.353-31.02
				c9.13-0.891,18.027-0.481,26.797,2.443c11.226,3.742,21.189,13.513,25.948,24.258c2.166,4.891,3.401,10.189,3.655,15.531
				c0.121,2.54,0.279,5.527-0.417,7.996c-0.724,2.57-1.562,4.535-0.39,7.228c0.189,0.434,0.411,0.854,0.657,1.258
				c2.325,3.821,4.82,7.539,7.234,11.307c1.018,1.588,2.121,3.133,2.995,4.798c1.5,2.858,0.984,4.206-1.924,5.761
				c-1.992,1.066-4.846,1.724-5.676,3.384c-0.51,1.02,0.271,2.421,0.659,3.353c0.554,1.332,1.117,2.735,0.995,4.211
				c-0.055,0.669-0.31,1.348-0.826,1.777c-0.179,0.149-0.386,0.265-0.558,0.423c-0.172,0.158-0.312,0.374-0.299,0.608
				c0.054,1.007,1.139,1.164,0.865,2.367c-0.243,1.065-1.071,1.95-1.865,2.649c-2.835,2.495-0.89,7.712-1.162,10.794
				c-0.19,2.164-1.058,4.363-2.777,5.692c-3.532,2.73-9.128,1.316-13.129,0.685c-6.333-0.999-14.564-0.406-15.293,7.638
				c-0.607,6.69,0.19,13.47,2.32,19.841"/>
			<g>
				<g>
					<path style="fill:none;stroke:white;stroke-linecap:round;stroke-linejoin:round;stroke-miterlimit:10;" d="M520.13,322.353
						c0,0-21.766-20.362,0-45.174C520.13,277.18,541.798,298.744,520.13,322.353z"/>
					
						<line style="fill:none;stroke:white;stroke-linecap:round;stroke-linejoin:round;stroke-miterlimit:10;" x1="520.13" y1="277.18" x2="520.13" y2="322.353"/>
				</g>
				<g>
					<path style="fill:none;stroke:white;stroke-linecap:round;stroke-linejoin:round;stroke-miterlimit:10;" d="M524.505,324.707
						c0,0,6.101-25.484,34.522-19.634C559.027,305.073,551.965,331.004,524.505,324.707z"/>
					
						<line style="fill:none;stroke:white;stroke-linecap:round;stroke-linejoin:round;stroke-miterlimit:10;" x1="559.027" y1="305.073" x2="524.505" y2="324.707"/>
				</g>
				<g>
					<path style="fill:none;stroke:white;stroke-linecap:round;stroke-linejoin:round;stroke-miterlimit:10;" d="M515.711,324.707
						c0,0-6.101-25.484-34.522-19.634C481.189,305.073,488.251,331.004,515.711,324.707z"/>
					
						<line style="fill:none;stroke:white;stroke-linecap:round;stroke-linejoin:round;stroke-miterlimit:10;" x1="481.189" y1="305.073" x2="515.711" y2="324.707"/>
				</g>
			</g>
		</g>
	</g>
	<g>
		<g>
			<g>
				<path style="fill:#FFB184;" d="M380.225,347.256c-0.873-1.665-1.977-3.21-2.995-4.798c-2.415-3.767-4.909-7.485-7.235-11.307
					c-0.246-0.404-0.468-0.824-0.657-1.258c-1.172-2.693-0.334-4.658,0.39-7.228c0.695-2.469,0.537-5.456,0.417-7.996
					c-0.254-5.342-1.488-10.64-3.655-15.531c-4.759-10.744-14.721-20.516-25.947-24.258c-8.771-2.923-17.668-3.333-26.797-2.442
					c-19.327,1.885-37.159,13.077-45.353,31.02c-4.815,10.544-5.843,22.688-3.244,33.956c2.771,12.012,9.611,21.079,16.885,30.695
					c3.975,5.255,5.967,11.18,4.652,17.637c-1.816,8.919-4.219,17.719-6.37,26.569c-0.314,1.291-0.625,2.582-0.939,3.878
					l62.18,0.244c-2.129-6.371-2.926-13.151-2.32-19.841c0.73-8.044,8.96-8.637,15.293-7.638c4.001,0.631,9.596,2.045,13.129-0.685
					c1.719-1.329,2.587-3.528,2.777-5.692c0.271-3.082-1.673-8.299,1.162-10.794c0.794-0.699,1.622-1.585,1.865-2.649
					c0.275-1.204-0.81-1.36-0.865-2.367c-0.012-0.233,0.128-0.45,0.299-0.608c0.172-0.158,0.378-0.273,0.558-0.423
					c0.516-0.429,0.771-1.108,0.826-1.777c0.122-1.476-0.441-2.879-0.995-4.211c-0.388-0.932-1.169-2.333-0.659-3.353
					c0.83-1.66,3.684-2.319,5.676-3.384C381.208,351.462,381.724,350.114,380.225,347.256z M317.65,350.499
					c-18.891,0-34.205-15.314-34.205-34.205c0-18.891,15.314-34.205,34.205-34.205c18.891,0,34.205,15.314,34.205,34.205
					C351.855,335.185,336.541,350.499,317.65,350.499z"/>
			</g>
			<path style="fill:#FFA9D2;" d="M315.825,281.354l1.33,9.599l3.958,0.016l0.686,9.383c0,0-8.682-0.91-13.772,6.173
				c-5.09,7.083-2.271,13.562-0.805,16.436l7.203-3.667c0,0,5.061,5.214,9.642,1.978c4.581-3.236,3.805-9.223,0.293-11.616
				l3.786-7.157c0,0,8.41,4.655,7.198,15.053l18.498,5.409c0,0,4.819-19.298-10.023-32.699
				C332.48,278.842,315.825,281.354,315.825,281.354z"/>
			<path style="fill:none;stroke:white;stroke-linecap:round;stroke-linejoin:round;stroke-miterlimit:10;" d="M283.896,412.804
				c0.314-1.296,0.625-2.587,0.939-3.878c2.151-8.851,4.554-17.65,6.37-26.569c1.315-6.457-0.677-12.382-4.652-17.637
				c-7.274-9.616-14.114-18.683-16.885-30.695c-2.599-11.268-1.571-23.412,3.244-33.956c8.194-17.943,26.026-29.135,45.353-31.02
				c9.13-0.891,18.027-0.481,26.798,2.443c11.226,3.742,21.189,13.513,25.947,24.258c2.167,4.891,3.401,10.189,3.655,15.531
				c0.121,2.54,0.279,5.527-0.417,7.996c-0.724,2.57-1.562,4.535-0.39,7.227c0.189,0.434,0.411,0.854,0.658,1.258
				c2.325,3.821,4.82,7.54,7.234,11.307c1.018,1.588,2.121,3.133,2.995,4.798c1.5,2.858,0.984,4.206-1.924,5.761
				c-1.992,1.066-4.846,1.724-5.676,3.384c-0.51,1.02,0.271,2.421,0.659,3.353c0.554,1.332,1.117,2.735,0.995,4.211
				c-0.055,0.668-0.31,1.348-0.826,1.777c-0.18,0.149-0.386,0.265-0.558,0.423c-0.172,0.158-0.312,0.375-0.299,0.608
				c0.054,1.007,1.139,1.164,0.865,2.367c-0.243,1.065-1.071,1.95-1.865,2.649c-2.835,2.495-0.89,7.712-1.162,10.794
				c-0.19,2.164-1.058,4.363-2.777,5.692c-3.532,2.73-9.128,1.316-13.129,0.685c-6.333-0.999-14.564-0.406-15.293,7.638
				c-0.607,6.69,0.19,13.47,2.32,19.841"/>
			<g>
				<path style="fill:none;stroke:white;stroke-linecap:round;stroke-linejoin:round;stroke-miterlimit:10;" d="M329.159,279.497
					c15.985,2.976,28.087,16.998,28.087,33.846c0,19.014-15.414,34.428-34.428,34.428c-19.014,0-34.428-15.414-34.428-34.428
					c0-17.555,13.14-32.042,30.121-34.161l1.206,9.753"/>
				<path style="fill:none;stroke:white;stroke-linecap:round;stroke-linejoin:round;stroke-miterlimit:10;" d="M346.912,317.267
					c-1.877,11.615-11.95,20.484-24.095,20.484c-6.068,0-11.618-2.214-15.888-5.878"/>
				<path style="fill:none;stroke:white;stroke-linecap:round;stroke-linejoin:round;stroke-miterlimit:10;" d="M301.776,325.721
					c-2.14-3.629-3.367-7.86-3.367-12.378c0-13.48,10.928-24.409,24.409-24.409c11.269,0,20.754,7.636,23.563,18.017"/>
				<path style="fill:none;stroke:white;stroke-linecap:round;stroke-linejoin:round;stroke-miterlimit:10;" d="M330.707,300.479
					c4.318,2.654,7.198,7.423,7.198,12.863c0,8.333-6.755,15.088-15.088,15.088c-8.333,0-15.088-6.755-15.088-15.088
					c0-8.333,6.755-15.088,15.088-15.088c0.521,0,1.035,0.026,1.543,0.078"/>
				<path style="fill:none;stroke:white;stroke-linecap:round;stroke-linejoin:round;stroke-miterlimit:10;" d="M316.254,310.812
					c1.016-2.634,3.572-4.502,6.563-4.502c3.884,0,7.033,3.149,7.033,7.033c0,3.884-3.149,7.033-7.033,7.033
					c-2.427,0-4.568-1.23-5.832-3.101"/>
				
					<line style="fill:none;stroke:white;stroke-linecap:round;stroke-linejoin:round;stroke-miterlimit:10;" x1="326.921" y1="337.407" x2="328.506" y2="347.301"/>
				<path style="fill:none;stroke:white;stroke-linecap:round;stroke-linejoin:round;stroke-miterlimit:10;" d="M306.934,331.869
					c0.083,0.077,6.762-6.521,6.762-6.521"/>
				<path style="fill:none;stroke:white;stroke-linecap:round;stroke-linejoin:round;stroke-miterlimit:10;" d="M309.469,320.375"
					/>
				
					<line style="fill:none;stroke:white;stroke-linecap:round;stroke-linejoin:round;stroke-miterlimit:10;" x1="346.91" y1="317.267" x2="337.905" y2="315.533"/>
				
					<line style="fill:none;stroke:white;stroke-linecap:round;stroke-linejoin:round;stroke-miterlimit:10;" x1="315.333" y1="300.244" x2="309.469" y2="292.907"/>
				
					<line style="fill:none;stroke:white;stroke-linecap:round;stroke-linejoin:round;stroke-miterlimit:10;" x1="325.393" y1="319.885" x2="328.506" y2="327.318"/>
			</g>
		</g>
	</g>
</g>
</svg>
