<svg xmlns="http://www.w3.org/2000/svg" xml:space="preserve" width="2048" height="2048" style="shape-rendering:geometricPrecision;text-rendering:geometricPrecision;image-rendering:optimizeQuality;fill-rule:evenodd;clip-rule:evenodd"><defs><style>.fil0{fill:none}.fil4{fill:#280A82}.fil2{fill:#FFA9D2}</style></defs><g id="Layer_x0020_1"><path class="fil0" d="M0 0h2048v2048H0z"/><path class="fil0" d="M255.999 255.999h1536v1536h-1536z"/><path class="fil0" d="M255.999 255.999h1536v1536h-1536z"/><path d="M1114.52 1792h580.668l-3.27-326.542c-99.978-230.737-338.951-365.782-576.82-374.608l-.578-.018V1792z" style="fill:#FFA9D2"/><path class="fil2" d="M533.857 1620.79v171.215h580.667v-701.168c-98.313-3.563-196.419 14.406-284.423 56.146-171.304 100.008-277.98 251.627-296.244 473.807z"/><path d="m1114.52 1073.48-.193.002c-216.983 0-392.554-175.983-392.554-392.966 0-216.56 175.571-392.518 392.554-392.518l.193.003v785.48z" style="fill:#FF9051"/><path class="fil2" d="M1507.27 680.517c0 216.722-175.537 392.534-392.158 392.957l-.59.007v-785.48c.368 0 .733.013 1.1.014 216.388.697 391.648 176.371 391.648 392.502z"/></g></svg>