<svg width="22" height="22" viewBox="0 0 22 22" fill="none" xmlns="http://www.w3.org/2000/svg">
<path fill-rule="evenodd" clip-rule="evenodd" d="M11.9428 0.723776C11.4221 0.203077 10.5779 0.203077 10.0572 0.723776C9.5365 1.24448 9.5365 2.0887 10.0572 2.60939L17.1144 9.66658H1.66668C0.930297 9.66658 0.333344 10.2635 0.333344 10.9999C0.333344 11.7363 0.930297 12.3333 1.66668 12.3333H17.1144L10.0572 19.3904C9.5365 19.9111 9.5365 20.7554 10.0572 21.2761C10.5779 21.7968 11.4221 21.7968 11.9428 21.2761L21.2752 11.9437C21.2784 11.9405 21.2816 11.9372 21.2848 11.934C21.5201 11.6943 21.6656 11.3661 21.6667 11.0039C21.6667 11.0026 21.6667 11.0013 21.6667 10.9999C21.6667 10.9986 21.6667 10.9973 21.6667 10.9959C21.6661 10.8166 21.6302 10.6456 21.5655 10.4895C21.5019 10.3359 21.4084 10.1916 21.2848 10.0659C21.2817 10.0626 21.2785 10.0595 21.2753 10.0563M21.2753 10.0563L11.9428 0.723776L21.2753 10.0563Z" fill="white"/>
</svg>