<svg version="1.1" id="Icon_Set" xmlns="http://www.w3.org/2000/svg" x="0" y="0" viewBox="0 0 64 64" style="enable-background:new 0 0 64 64" xml:space="preserve"><style>.st0,.st4{fill:none;stroke:#37474f;stroke-linecap:round;stroke-linejoin:round;stroke-miterlimit:10}.st4{fill:#ff7043}</style><g id="Exit"><path class="st0"  d="M53 8.5h5M60 8.5h1M18.4 51.5h-5M11.4 51.5h-1M21 59.5H5.5C4.1 59.5 3 58.4 3 57V3C3 1.6 4.1.5 5.5.5h33C39.9.5 41 1.6 41 3v6"/><g><path class="st4" d="M8.4 12.2c-.2.3-.4.7-.4 1.1 0 .8.7 1.5 1.5 1.5h11.3c.8 0 1.5-.7 1.5-1.5s-.7-1.5-1.5-1.5H9.5c-.4 0-.8.2-1.1.4z"/><path class="st4" d="M14.4 6.9c-.6.6-.6 1.5 0 2.1l4.2 4.2-4.2 4.2c-.6.6-.6 1.5 0 2.1.6.6 1.5.6 2.1 0l5.3-5.3c.6-.6.6-1.5 0-2.1l-5.3-5.3c-.5-.4-1.5-.4-2.1.1z"/></g><g><circle transform="rotate(-67.5 44.392 17.987)" class="st0" cx="44.4" cy="18" r="6"/><path d="m49.6 16.4.6-.2c-.5-1.6-1.7-3-3.4-3.8-3.1-1.3-6.6.2-7.8 3.2l.5.2c3.1 1.4 6.7 1.6 10.1.6z" style="fill:#ffa26e;stroke:#ffa26e;stroke-linecap:round;stroke-linejoin:round;stroke-miterlimit:10"/><g><path class="st0" d="m32.7 46.2-5.3 15.2c-.2.5.1 1 .6 1.3l2 .8c.5.2 1.1 0 1.3-.5l7-14.5"/><path class="st0" d="M44.3 35.4c.1 1.9 1.3 3.5 3.1 4.3l7.5 3.1 1.5-3.7-8.1-3.4-.5-6.8c-.1-1.9-1.3-3.5-3.1-4.3l-7.1-3c-.7-.3-1.5-.4-2.3-.4l-8.1.6c-1.8.2-3.5 1.4-4.2 3.2l-3.1 7.5 3.7 1.5 3.4-8.1 7.9-.6-5 12c-1.1 2.6.2 5.5 2.7 6.5L42.8 48l-3.2 10.1c-.2.5.1 1 .6 1.2l2 .8c.5.2 1.1 0 1.3-.5l4.9-10.2c1.2-2.6.1-5.7-2.6-6.8l-4.3-1.8 2.9-7-.1 1.6z"/><path class="st0" d="M22.8 35.9h0c-.4 1-1.6 1.5-2.6 1.1h0c-1-.4-1.5-1.6-1.1-2.6h0M58.3 39.9h0c1 .4 1.5 1.6 1.1 2.6v0c-.4 1-1.6 1.5-2.6 1.1h0M41.3 41.1l-11.1-4.6"/></g></g></g></svg>