<svg xmlns="http://www.w3.org/2000/svg" xmlns:xlink="http://www.w3.org/1999/xlink" version="1.1" x="0px" y="0px" viewBox="0 0 64 80" enable-background="new 0 0 64 64" xml:space="preserve"><path style="fill:#FFA9D2;" d="M54.593,22.423c-1.088-1.04-2.504-1.58-4.015-1.512l-7.839,0.329c1.359-1.883,2.11-4.157,2.11-6.51  c0-6.165-5.016-11.181-11.18-11.181c-3.688,0-6.955,1.803-8.992,4.566C22.937,7.058,20.961,6.5,18.9,6.5  C12.735,6.5,7.72,11.516,7.72,17.68c0,5.268,3.631,9.72,8.639,10.877c-0.288,0.709-0.508,1.454-0.636,2.233l-0.68,4.192  c-0.722,0.201-1.405,0.548-2.001,1.038c-1.262,1.038-1.985,2.571-1.985,4.205v1.401c0,1.72,0.868,3.264,2.21,4.207l-1.603,9.835  c-0.194,1.193,0.143,2.406,0.926,3.328c0.785,0.924,1.93,1.453,3.142,1.453h9.699h13.33h7.2c1.17,0,2.287-0.498,3.066-1.367  c0.779-0.868,1.153-2.031,1.027-3.189l-1.449-13.513c2.476-1.197,3.945-3.881,3.556-6.673l-0.55-3.833l0.901-0.295  c2.254-0.738,3.769-2.828,3.769-5.2C56.28,24.871,55.681,23.466,54.593,22.423z M9.72,17.68c0-5.062,4.118-9.18,9.181-9.18  c1.69,0,3.312,0.458,4.739,1.324c-0.729,1.484-1.149,3.145-1.149,4.906c0,2.717,0.961,5.266,2.695,7.271  c-3.254,0.289-6.128,2.083-7.864,4.711C12.948,25.957,9.72,22.182,9.72,17.68z M13.057,40.226c0-1.034,0.458-2.004,1.256-2.661  c0.799-0.658,1.837-0.921,2.855-0.723c1.478,0.289,2.55,1.591,2.55,3.097v1.4c0,1.034-0.458,2.004-1.256,2.661  c-0.799,0.658-1.836,0.921-2.854,0.724c-1.478-0.29-2.55-1.592-2.55-3.097V40.226z M47.538,57.747  c-0.406,0.453-0.967,0.703-1.578,0.703h-6.121l1.018-13.411l5.812-1.953l1.396,13.022C48.131,56.713,47.944,57.295,47.538,57.747z   M50.18,35.988c0.295,2.109-0.953,4.13-2.967,4.804c-0.003,0.001-0.005,0.003-0.007,0.004l-9.714,3.266  c-1.097,0.368-2.268,0.19-3.209-0.486C33.34,42.897,32.8,41.847,32.8,40.69c0-1.595,1.021-3.001,2.541-3.5l14.339-4.685  L50.18,35.988z M51.89,29.68l-17.171,5.61c-2.344,0.769-3.919,2.939-3.919,5.4c0,1.808,0.844,3.451,2.314,4.509  s3.298,1.333,5.016,0.758l0.669-0.226L37.833,58.45H25.43H15.73c-0.624,0-1.214-0.272-1.617-0.748  c-0.403-0.474-0.576-1.098-0.476-1.711l1.52-9.324c0.022,0.005,0.043,0.014,0.065,0.019h0.001c0.35,0.068,0.701,0.102,1.051,0.102  c1.252,0,2.472-0.432,3.458-1.244c1.261-1.039,1.984-2.571,1.984-4.205v-1.4c0-2.46-1.752-4.588-4.167-5.06  c-0.151-0.029-0.302-0.046-0.454-0.063l0.601-3.704c0.649-3.97,4.037-6.974,8.055-7.144l1.89-0.08  c0.423-0.018,0.789-0.3,0.913-0.704c0.125-0.404-0.018-0.843-0.356-1.096c-2.356-1.761-3.708-4.442-3.708-7.358  c0-5.062,4.118-9.181,9.18-9.181s9.18,4.118,9.18,9.181c0,2.507-1.05,4.901-2.876,6.63L34.8,21.58  c-0.553,0.023-0.98,0.489-0.957,1.041c0.022,0.538,0.466,0.958,0.998,0.958c0.015,0,0.029,0,0.043-0.001l5.56-0.236  c0.005,0,0.009-0.003,0.015-0.004l10.205-0.429c0.981-0.037,1.857,0.299,2.546,0.959c0.69,0.661,1.071,1.553,1.071,2.512  C54.28,27.885,53.319,29.211,51.89,29.68z"/></svg>