<svg xmlns="http://www.w3.org/2000/svg" viewBox="0 0 512 512" xml:space="preserve"><path fill="#FFA9D2" d="m128.05 351.96-41.79 24.13a209.538 209.538 0 0 0 48.53 48.85l24.15-41.82a161.37 161.37 0 0 1-30.89-31.16zM97.13 275H48.87c2.13 23.47 8.18 45.82 17.48 66.4l41.83-24.15c-5.52-13.28-9.3-27.46-11.05-42.25zM346 72l-90-62v38C148.4 48 59.62 130.13 49.06 235h48.31C107.69 156.67 174.9 96 256 96v38l90-62z"/><g><path fill="#FF9051" d="m383.95 160.04 41.79-24.13a209.538 209.538 0 0 0-48.53-48.85l-24.15 41.82a161.37 161.37 0 0 1 30.89 31.16zM414.87 237h48.26a206.318 206.318 0 0 0-17.48-66.4l-41.83 24.15c5.52 13.28 9.3 27.46 11.05 42.25zM166 440l90 62v-38c107.6 0 196.38-82.13 206.94-187h-48.31C404.31 355.33 337.1 416 256 416v-38l-90 62z"/></g></svg>