<svg width="44" height="44" viewBox="0 0 44 44" fill="none" xmlns="http://www.w3.org/2000/svg">
<path d="M19.8934 1.55289C20.867 -0.0732968 23.1331 -0.0732939 24.1067 1.5529L29.8238 11.1023C30.1649 11.6719 30.7039 12.0813 31.3276 12.2443L41.7827 14.977C43.5631 15.4424 44.2633 17.6952 43.0846 19.1656L36.1629 27.8001C35.75 28.3152 35.5441 28.9776 35.5885 29.648L36.333 40.8863C36.4598 42.8001 34.6265 44.1924 32.9244 43.4749L22.9294 39.262C22.3332 39.0107 21.6669 39.0107 21.0707 39.262L11.0757 43.4749C9.3736 44.1924 7.54031 42.8001 7.66709 40.8863L8.41156 29.648C8.45597 28.9776 8.25009 28.3152 7.83717 27.8001L0.915454 19.1656C-0.263264 17.6952 0.436994 15.4424 2.21742 14.977L12.6725 12.2443C13.2962 12.0813 13.8352 11.6719 14.1763 11.1023L19.8934 1.55289Z" fill="currentColor"/>
</svg>
